HIERARCHY
ROOT Hips
{
  OFFSET -139.079 72.9421 1310.16
  CHANNELS 6 Xposition Yposition Zposition Zrotation Xrotation Yrotation
  JOINT Spine
  {
    OFFSET 0 8 0
    CHANNELS 6 Xposition Yposition Zposition Zrotation Xrotation Yrotation
    JOINT Spine1
    {
      OFFSET 0 8 0
      CHANNELS 6 Xposition Yposition Zposition Zrotation Xrotation Yrotation
      JOINT Spine2
      {
        OFFSET 0 8 0
        CHANNELS 6 Xposition Yposition Zposition Zrotation Xrotation Yrotation
        JOINT Spine3
        {
          OFFSET 0 8 0
          CHANNELS 6 Xposition Yposition Zposition Zrotation Xrotation Yrotation
          JOINT Neck
          {
            OFFSET 0 17 0
            CHANNELS 6 Xposition Yposition Zposition Zrotation Xrotation Yrotation
            JOINT Head
            {
              OFFSET 0 10.8 0
              CHANNELS 6 Xposition Yposition Zposition Zrotation Xrotation Yrotation
              End Site
              {
                OFFSET 0 20.25 0
              }
            }
          }
          JOINT LeftShoulder
          {
            OFFSET 5 17 0
            CHANNELS 6 Xposition Yposition Zposition Zrotation Xrotation Yrotation
            JOINT LeftShoulder2
            {
              OFFSET 6.45 0 0
              CHANNELS 6 Xposition Yposition Zposition Zrotation Xrotation Yrotation
              JOINT LeftArm
              {
                OFFSET 6.45 0 0
                CHANNELS 6 Xposition Yposition Zposition Zrotation Xrotation Yrotation
                JOINT LeftForeArm
                {
                  OFFSET 0 -32.4 -2
                  CHANNELS 6 Xposition Yposition Zposition Zrotation Xrotation Yrotation
                  JOINT LeftHand
                  {
                    OFFSET 0 -25.65 2
                    CHANNELS 6 Xposition Yposition Zposition Zrotation Xrotation Yrotation
                    JOINT LeftHandThumb1
                    {
                      OFFSET -0.5 -1.5 2.65
                      CHANNELS 6 Xposition Yposition Zposition Zrotation Xrotation Yrotation
                      JOINT LeftHandThumb2
                      {
                        OFFSET 0 -3.8 3.7
                        CHANNELS 6 Xposition Yposition Zposition Zrotation Xrotation Yrotation
                        JOINT LeftHandThumb3
                        {
                          OFFSET 0 -3 2.7
                          CHANNELS 6 Xposition Yposition Zposition Zrotation Xrotation Yrotation
                          End Site
                          {
                            OFFSET 0 -2.3 1.8
                          }
                        }
                      }
                    }
                    JOINT LeftHandIndex
                    {
                      OFFSET 0 -1.9 1.6
                      CHANNELS 6 Xposition Yposition Zposition Zrotation Xrotation Yrotation
                      JOINT LeftHandIndex1
                      {
                        OFFSET 0 -8.3 1.9
                        CHANNELS 6 Xposition Yposition Zposition Zrotation Xrotation Yrotation
                        JOINT LeftHandIndex2
                        {
                          OFFSET 0 -4.5 0
                          CHANNELS 6 Xposition Yposition Zposition Zrotation Xrotation Yrotation
                          JOINT LeftHandIndex3
                          {
                            OFFSET 0 -3.4 0
                            CHANNELS 6 Xposition Yposition Zposition Zrotation Xrotation Yrotation
                            End Site
                            {
                              OFFSET 0 -2.6 0
                            }
                          }
                        }
                      }
                    }
                    JOINT LeftHandMiddle
                    {
                      OFFSET -0.25 -2.2 0.4
                      CHANNELS 6 Xposition Yposition Zposition Zrotation Xrotation Yrotation
                      JOINT LeftHandMiddle1
                      {
                        OFFSET 0 -8.3 1
                        CHANNELS 6 Xposition Yposition Zposition Zrotation Xrotation Yrotation
                        JOINT LeftHandMiddle2
                        {
                          OFFSET 0 -4.65 0
                          CHANNELS 6 Xposition Yposition Zposition Zrotation Xrotation Yrotation
                          JOINT LeftHandMiddle3
                          {
                            OFFSET 0 -3.3 0
                            CHANNELS 6 Xposition Yposition Zposition Zrotation Xrotation Yrotation
                            End Site
                            {
                              OFFSET 0 -2.7 0
                            }
                          }
                        }
                      }
                    }
                    JOINT LeftHandRing
                    {
                      OFFSET -0.5 -2.15 -0.8
                      CHANNELS 6 Xposition Yposition Zposition Zrotation Xrotation Yrotation
                      JOINT LeftHandRing1
                      {
                        OFFSET 0 -7.75 -0.2
                        CHANNELS 6 Xposition Yposition Zposition Zrotation Xrotation Yrotation
                        JOINT LeftHandRing2
                        {
                          OFFSET 0 -3.8 0
                          CHANNELS 6 Xposition Yposition Zposition Zrotation Xrotation Yrotation
                          JOINT LeftHandRing3
                          {
                            OFFSET 0 -3.4 0
                            CHANNELS 6 Xposition Yposition Zposition Zrotation Xrotation Yrotation
                            End Site
                            {
                              OFFSET 0 -2.6 0
                            }
                          }
                        }
                      }
                    }
                    JOINT LeftHandPinky
                    {
                      OFFSET -0.75 -1.75 -1.85
                      CHANNELS 6 Xposition Yposition Zposition Zrotation Xrotation Yrotation
                      JOINT LeftHandPinky1
                      {
                        OFFSET 0 -7.15 -1
                        CHANNELS 6 Xposition Yposition Zposition Zrotation Xrotation Yrotation
                        JOINT LeftHandPinky2
                        {
                          OFFSET 0 -3 0
                          CHANNELS 6 Xposition Yposition Zposition Zrotation Xrotation Yrotation
                          JOINT LeftHandPinky3
                          {
                            OFFSET 0 -2.35 0
                            CHANNELS 6 Xposition Yposition Zposition Zrotation Xrotation Yrotation
                            End Site
                            {
                              OFFSET 0 -2.1 0
                            }
                          }
                        }
                      }
                    }
                  }
                }
              }
            }
          }
          JOINT RightShoulder
          {
            OFFSET -5 17 0
            CHANNELS 6 Xposition Yposition Zposition Zrotation Xrotation Yrotation
            JOINT RightShoulder2
            {
              OFFSET -6.45 0 0
              CHANNELS 6 Xposition Yposition Zposition Zrotation Xrotation Yrotation
              JOINT RightArm
              {
                OFFSET -6.45 0 0
                CHANNELS 6 Xposition Yposition Zposition Zrotation Xrotation Yrotation
                JOINT RightForeArm
                {
                  OFFSET 0 -32.4 -2
                  CHANNELS 6 Xposition Yposition Zposition Zrotation Xrotation Yrotation
                  JOINT RightHand
                  {
                    OFFSET 0 -25.65 2
                    CHANNELS 6 Xposition Yposition Zposition Zrotation Xrotation Yrotation
                    JOINT RightHandThumb1
                    {
                      OFFSET 0.5 -1.5 2.65
                      CHANNELS 6 Xposition Yposition Zposition Zrotation Xrotation Yrotation
                      JOINT RightHandThumb2
                      {
                        OFFSET 0 -3.8 3.7
                        CHANNELS 6 Xposition Yposition Zposition Zrotation Xrotation Yrotation
                        JOINT RightHandThumb3
                        {
                          OFFSET 0 -3 2.7
                          CHANNELS 6 Xposition Yposition Zposition Zrotation Xrotation Yrotation
                          End Site
                          {
                            OFFSET 0 -2.3 1.8
                          }
                        }
                      }
                    }
                    JOINT RightHandIndex
                    {
                      OFFSET 0 -1.9 1.6
                      CHANNELS 6 Xposition Yposition Zposition Zrotation Xrotation Yrotation
                      JOINT RightHandIndex1
                      {
                        OFFSET 0 -8.3 1.9
                        CHANNELS 6 Xposition Yposition Zposition Zrotation Xrotation Yrotation
                        JOINT RightHandIndex2
                        {
                          OFFSET 0 -4.5 0
                          CHANNELS 6 Xposition Yposition Zposition Zrotation Xrotation Yrotation
                          JOINT RightHandIndex3
                          {
                            OFFSET 0 -3.4 0
                            CHANNELS 6 Xposition Yposition Zposition Zrotation Xrotation Yrotation
                            End Site
                            {
                              OFFSET 0 -2.6 0
                            }
                          }
                        }
                      }
                    }
                    JOINT RightHandMiddle
                    {
                      OFFSET 0.25 -2.2 0.4
                      CHANNELS 6 Xposition Yposition Zposition Zrotation Xrotation Yrotation
                      JOINT RightHandMiddle1
                      {
                        OFFSET 0 -8.3 1
                        CHANNELS 6 Xposition Yposition Zposition Zrotation Xrotation Yrotation
                        JOINT RightHandMiddle2
                        {
                          OFFSET 0 -4.65 0
                          CHANNELS 6 Xposition Yposition Zposition Zrotation Xrotation Yrotation
                          JOINT RightHandMiddle3
                          {
                            OFFSET 0 -3.3 0
                            CHANNELS 6 Xposition Yposition Zposition Zrotation Xrotation Yrotation
                            End Site
                            {
                              OFFSET 0 -2.7 0
                            }
                          }
                        }
                      }
                    }
                    JOINT RightHandRing
                    {
                      OFFSET 0.5 -2.15 -0.8
                      CHANNELS 6 Xposition Yposition Zposition Zrotation Xrotation Yrotation
                      JOINT RightHandRing1
                      {
                        OFFSET 0 -7.75 -0.2
                        CHANNELS 6 Xposition Yposition Zposition Zrotation Xrotation Yrotation
                        JOINT RightHandRing2
                        {
                          OFFSET 0 -3.8 0
                          CHANNELS 6 Xposition Yposition Zposition Zrotation Xrotation Yrotation
                          JOINT RightHandRing3
                          {
                            OFFSET 0 -3.4 0
                            CHANNELS 6 Xposition Yposition Zposition Zrotation Xrotation Yrotation
                            End Site
                            {
                              OFFSET 0 -2.6 0
                            }
                          }
                        }
                      }
                    }
                    JOINT RightHandPinky
                    {
                      OFFSET 0.75 -1.75 -1.85
                      CHANNELS 6 Xposition Yposition Zposition Zrotation Xrotation Yrotation
                      JOINT RightHandPinky1
                      {
                        OFFSET 0 -7.15 -1
                        CHANNELS 6 Xposition Yposition Zposition Zrotation Xrotation Yrotation
                        JOINT RightHandPinky2
                        {
                          OFFSET 0 -3 0
                          CHANNELS 6 Xposition Yposition Zposition Zrotation Xrotation Yrotation
                          JOINT RightHandPinky3
                          {
                            OFFSET 0 -2.35 0
                            CHANNELS 6 Xposition Yposition Zposition Zrotation Xrotation Yrotation
                            End Site
                            {
                              OFFSET 0 -2.1 0
                            }
                          }
                        }
                      }
                    }
                  }
                }
              }
            }
          }
        }
      }
    }
  }
  JOINT LeftUpLeg
  {
    OFFSET 8 0 0
    CHANNELS 6 Xposition Yposition Zposition Zrotation Xrotation Yrotation
    JOINT LeftLeg
    {
      OFFSET 0 -45 -1
      CHANNELS 6 Xposition Yposition Zposition Zrotation Xrotation Yrotation
      JOINT LeftFoot
      {
        OFFSET 0 -41 -2
        CHANNELS 6 Xposition Yposition Zposition Zrotation Xrotation Yrotation
        JOINT LeftToeBase
        {
          OFFSET 0 -7.5 12.5
          CHANNELS 6 Xposition Yposition Zposition Zrotation Xrotation Yrotation
          JOINT LeftFootToe
          {
            OFFSET 0 0 4
            CHANNELS 6 Xposition Yposition Zposition Zrotation Xrotation Yrotation
            End Site
            {
              OFFSET 0 0 0
            }
          }
        }
      }
    }
  }
  JOINT RightUpLeg
  {
    OFFSET -8 0 0
    CHANNELS 6 Xposition Yposition Zposition Zrotation Xrotation Yrotation
    JOINT RightLeg
    {
      OFFSET 0 -45 -1
      CHANNELS 6 Xposition Yposition Zposition Zrotation Xrotation Yrotation
      JOINT RightFoot
      {
        OFFSET 0 -41 -2
        CHANNELS 6 Xposition Yposition Zposition Zrotation Xrotation Yrotation
        JOINT RightToeBase
        {
          OFFSET 0 -7.5 12.5
          CHANNELS 6 Xposition Yposition Zposition Zrotation Xrotation Yrotation
          JOINT RightFootToe
          {
            OFFSET 0 0 4
            CHANNELS 6 Xposition Yposition Zposition Zrotation Xrotation Yrotation
            End Site
            {
              OFFSET 0 0 0
            }
          }
        }
      }
    }
  }
}
MOTION
Frames:	3
Frame Time:	0.0111111
-159.239 89.0964 1303.05 -6.48473 0.343003 165.148 5.68434e-14 8 2.27374e-13 2.47394 20.5004 -7.8775 0 8 0 2.97318 5.93208 -1.88499 -5.68434e-14 8 2.27374e-13 1.4615 2.98093 -0.903555 0 8 0 1.45883 2.97562 -0.901878 -5.68434e-14 17 0 -0.0792862 -1.8684 -3.16558 1.13687e-13 10.8 -2.27374e-13 -0.346442 -4.35057 -7.40537 5 17 0 -7.69672 0.129369 -7.01588 6.45 0 0 -0.906295 0.495636 1.44476 6.45 0 0 19.9318 21.0073 24.6398 0 -32.4 -2 -9.09489 -67.0007 -37.69 0 -25.65 2 -5.70287 -66.0806 -13.6798 -0.5 -1.5 2.65 -8.98349 27.4231 61.6138 0 -3.8 3.7 -0.084196 11.6924 0.0115856 0 -3 2.7 -0.0146682 -0.183273 0.00811772 1.13687e-13 -1.9 1.6 -6.36111e-15 4.77083e-15 -1.11319e-14 0 -8.3 1.9 -0.0785972 2.38854 0.00829499 0 -4.5 1.13687e-13 -77.5116 0.00799685 -0.00819344 0 -3.4 1.13687e-13 -61.8783 -0.00682241 -0.00930317 -0.25 -2.2 0.4 -6.36111e-15 4.77083e-15 -1.11319e-14 0 -8.3 1 -14.0962 8.98251 2.07123 -1.13687e-13 -4.65 -8.52651e-14 -66.7918 -0.000691826 -0.00235594 -2.27374e-13 -3.3 -2.84217e-14 -90.0002 0 -3.26007e-14 -0.5 -2.15 -0.8 -6.36111e-15 4.77083e-15 -1.11319e-14 1.13687e-13 -7.75 -0.2 -43.8541 10.4215 7.02136 4.54747e-13 -3.8 -1.42109e-13 -54.3653 -0.00680925 0.00808668 0 -3.4 -2.84217e-14 -90.0002 0.00281162 1.27222e-14 -0.75 -1.75 -1.85 -6.36111e-15 4.77083e-15 -1.11319e-14 0 -7.15 -1 -59.9164 9.6842 10.1198 -2.27374e-13 -3 1.42109e-13 -38.9986 -0.00132907 0.000395105 1.13687e-13 -2.35 -1.56319e-13 -27.4788 -0.0019568 -5.82825e-05 -5 17 0 1.53419 0.921241 0.0363567 -6.45 0 0 -0.588574 -0.537794 -1.40439 -6.45 1.13687e-13 0 -35.4803 -12.1527 -33.2261 1.13687e-13 -32.4 -2 -30.456 -49.6808 -15.5433 1.13687e-13 -25.65 2 13.3747 -28.5365 17.5441 0.5 -1.5 2.65 41.8981 26.263 -84.6496 2.27374e-13 -3.8 3.7 0.252738 24.2695 0.00681832 0 -3 2.7 0.0537458 55.8248 -0.0491982 0 -1.9 1.6 -3.18055e-15 3.18055e-15 -0 0 -8.3 1.9 4.05921 16.6433 -0.743556 0 -4.5 2.27374e-13 -3.97569e-15 0 -4.77083e-15 5.68434e-14 -3.4 2.27374e-13 -7.15625e-15 -3.18055e-15 -1.59028e-15 0.25 -2.2 0.4 -3.18055e-15 3.18055e-15 -0 0 -8.3 1 7.30596 10.8132 -0.958257 1.13687e-13 -4.65 -2.27374e-13 12.0251 0.111311 -0.0419751 2.84217e-14 -3.3 0 10.3282 0.0774882 -0.0458217 0.5 -2.15 -0.8 -3.18055e-15 3.18055e-15 -0 0 -7.75 -0.2 15.533 2.83441 -0.985492 -2.84217e-14 -3.8 5.68434e-13 39.3046 -0.078159 0.100969 0 -3.4 -1.13687e-13 27.6697 -0.00818606 0.0760706 0.75 -1.75 -1.85 -3.18055e-15 3.18055e-15 -0 5.68434e-14 -7.15 -1 20.7261 -6.29183 0.48527 -7.10543e-15 -3 0 -1.19271e-15 0 5.56597e-15 -2.13163e-14 -2.35 -1.13687e-13 1.59028e-15 6.36111e-15 5.56597e-15 8 0 0 -9.93563 -21.6006 2.1602 2.84217e-14 -45 -1 -0.368766 29.3868 1.77191 0 -41 -2 4.44188 -9.35874 19.3685 0 -7.5 12.5 1.88059e-19 -3.1806e-15 -1.59028e-15 0 0 4 -8.75246 7.50574 -8.98764 -8 0 0 -14.3988 -27.1728 0.98514 0 -45 -1 0.850081 33.7339 -3.35048 0 -41 -2 8.23113 -7.54439 14.128 0 -7.5 12.5 9.09964e-20 -1.94126e-19 7.95139e-16 -2.84217e-14 -2.77556e-17 4 1.46618 2.40221 12.821 
-158.92 89.2775 1302.88 -6.50578 0.28493 165.132 2.84217e-14 8 0 2.39127 20.5172 -7.95339 0 8 2.27374e-13 2.92669 5.90886 -1.91676 5.68434e-14 8 2.27374e-13 1.43794 2.9693 -0.920176 0 8 2.27374e-13 1.43535 2.96406 -0.918497 -1.13687e-13 17 0 -0.0194974 -1.76478 -3.11919 -1.13687e-13 10.8 0 -0.195597 -4.11407 -7.29252 5 17 0 -7.57854 0.111918 -7.10266 6.45 1.13687e-13 0 -0.872182 0.495633 1.45864 6.45 0 0 19.3631 21.1353 25.0762 2.84217e-14 -32.4 -2 -7.85883 -66.5723 -36.8353 0 -25.65 2 -5.70287 -66.0806 -13.6798 -0.5 -1.5 2.65 -8.92401 27.4961 61.3881 0 -3.8 3.7 -0.0841794 11.6122 0.0115822 5.68434e-14 -3 2.7 -0.0146682 -0.183273 0.00811772 2.27374e-13 -1.9 1.6 -4.41391e-31 -3.18055e-15 -7.95139e-15 1.13687e-13 -8.3 1.9 -0.074281 2.31871 0.00829457 0 -4.5 1.13687e-13 -77.9354 0.00799685 -0.00819344 0 -3.4 1.13687e-13 -62.5424 -0.00682241 -0.00930317 -0.25 -2.2 0.4 -4.41391e-31 -3.18055e-15 -7.95139e-15 -1.13687e-13 -8.3 1 -14.0528 8.92226 2.05526 1.13687e-13 -4.65 -1.13687e-13 -67.0931 -0.000691826 -0.00235594 -2.27374e-13 -3.3 5.68434e-14 -90.0002 -3.02153e-14 2.78299e-14 -0.5 -2.15 -0.8 -4.41391e-31 -3.18055e-15 -7.95139e-15 0 -7.75 -0.2 -43.7616 10.4291 7.00282 2.27374e-13 -3.8 -1.13687e-13 -54.2988 -0.00680925 0.00808668 1.13687e-13 -3.4 -2.84217e-14 -90.0002 0.00281162 2.54444e-14 -0.75 -1.75 -1.85 -4.41391e-31 -3.18055e-15 -7.95139e-15 2.27374e-13 -7.15 -1 -59.7351 9.71791 10.0901 0 -3 1.42109e-13 -39.0632 -0.00132907 0.000395105 -1.13687e-13 -2.35 -1.42109e-13 -27.5178 -0.0019568 -5.82825e-05 -5 17 0 1.54189 0.993601 0.0233702 -6.45 0 0 -0.572814 -0.547577 -1.40024 -6.45 1.13687e-13 2.27374e-13 -34.7664 -12.2796 -33.8716 -1.13687e-13 -32.4 -2 -30.1807 -51.2069 -16.5011 1.13687e-13 -25.65 2 13.3988 -27.6348 14.7258 0.5 -1.5 2.65 41.8878 29.4898 -81.037 0 -3.8 3.7 0.265974 22.5519 0.00673039 0 -3 2.7 0.0537458 55.8248 -0.0491982 0 -1.9 1.6 -1.59028e-15 3.18055e-15 -0 0 -8.3 1.9 3.80689 16.1955 -0.686987 0 -4.5 0 -5.56597e-15 0 -6.36111e-15 5.68434e-14 -3.4 2.27374e-13 1.59028e-15 -3.18055e-15 6.36111e-15 0.25 -2.2 0.4 -1.59028e-15 3.18055e-15 -0 5.68434e-14 -8.3 1 7.56703 10.6732 -0.983933 5.68434e-14 -4.65 -4.54747e-13 11.181 0.22886 -0.079875 -2.84217e-14 -3.3 0 9.65557 0.165855 -0.0895711 0.5 -2.15 -0.8 -1.59028e-15 3.18055e-15 -0 0 -7.75 -0.2 16.6363 3.22204 -1.09599 0 -3.8 5.68434e-13 39.9932 -0.0532585 0.0654143 -5.68434e-14 -3.4 -2.27374e-13 28.0851 -0.00818606 0.0502853 0.75 -1.75 -1.85 -1.59028e-15 3.18055e-15 -0 0 -7.15 -1 22.5272 -5.29464 0.343348 -1.42109e-14 -3 -1.13687e-13 3.18055e-15 -6.36111e-15 -7.95139e-16 1.42109e-14 -2.35 0 2.38542e-15 -6.36111e-15 7.95139e-16 8 0 0 -9.79126 -21.1433 2.2712 2.84217e-14 -45 -1 -0.364119 28.6161 1.81825 2.84217e-14 -41 -2 4.30393 -9.11376 19.6521 0 -7.5 12.5 6.06643e-20 -3.18065e-15 -6.36111e-15 0 0 4 -8.70405 7.1662 -9.01845 -8 1.42109e-14 0 -14.3043 -26.6957 0.991706 2.84217e-14 -45 -1 0.810012 32.9197 -3.29124 -5.68434e-14 -41 -2 8.12981 -7.28416 14.2014 1.42109e-14 -7.5 12.5 2.12325e-20 -1.94126e-19 -7.95139e-16 0 0 4 1.50736 2.09467 12.8654 
-158.602 89.4535 1302.69 -6.52832 0.216148 165.134 8.52651e-14 8 0 2.30548 20.5312 -8.01698 1.13687e-13 8 2.27374e-13 2.88496 5.88395 -1.93763 5.68434e-14 8 4.54747e-13 1.41692 2.95676 -0.931299 -5.68434e-14 8 0 1.41438 2.95159 -0.929614 -1.7053e-13 17 -2.27374e-13 0.0429079 -1.67114 -3.08122 -1.13687e-13 10.8 2.27374e-13 -0.0401832 -3.90098 -7.19979 5 17 -2.27374e-13 -7.46316 0.110172 -7.2005 6.45 2.27374e-13 2.27374e-13 -0.839062 0.495631 1.4667 6.45 1.13687e-13 0 18.8282 21.2196 25.5173 0 -32.4 -2 -6.72134 -66.1515 -36.057 1.13687e-13 -25.65 2 -5.70287 -66.0806 -13.6798 -0.5 -1.5 2.65 -8.85379 27.6358 61.1781 5.68434e-14 -3.8 3.7 -0.0841469 11.4544 0.0115757 0 -3 2.7 -0.0146682 -0.183273 0.00811772 0 -1.9 1.6 -1.27222e-14 1.59028e-15 -7.95139e-15 1.13687e-13 -8.3 1.9 -0.0707198 2.25843 0.00829422 0 -4.5 1.13687e-13 -78.3349 0.00799685 -0.00819344 0 -3.4 1.13687e-13 -63.1793 -0.00682241 -0.00930317 -0.25 -2.2 0.4 -1.27222e-14 1.59028e-15 -7.95139e-15 -2.27374e-13 -8.3 1 -14.0178 8.878 2.04284 1.13687e-13 -4.65 -1.13687e-13 -67.3715 -0.000691826 -0.00235594 2.27374e-13 -3.3 -2.84217e-14 -90.0002 -9.54166e-15 -1.59028e-15 -0.5 -2.15 -0.8 -1.27222e-14 1.59028e-15 -7.95139e-15 0 -7.75 -0.2 -43.7005 10.4372 6.99044 2.27374e-13 -3.8 -1.27898e-13 -54.1827 -0.00680925 0.00808668 0 -3.4 0 -90.0002 0.00281162 -7.95139e-15 -0.75 -1.75 -1.85 -1.27222e-14 1.59028e-15 -7.95139e-15 2.27374e-13 -7.15 -1 -59.5894 9.74494 10.0662 0 -3 8.52651e-14 -39.065 -0.00132907 0.000395105 -1.13687e-13 -2.35 -1.13687e-13 -27.5189 -0.0019568 -5.82825e-05 -5 17 0 1.56809 1.04999 -0.00990201 -6.45 0 0 -0.558329 -0.55645 -1.3979 -6.45 1.13687e-13 0 -34.1007 -12.3662 -34.4971 0 -32.4 -2 -29.5371 -52.7871 -17.3413 1.13687e-13 -25.65 2 13.3649 -26.6328 11.8012 0.5 -1.5 2.65 41.3907 32.9844 -77.0556 2.27374e-13 -3.8 3.7 0.274251 20.7852 0.00664843 0 -3 2.7 0.0537458 55.8248 -0.0491982 0 -1.9 1.6 -9.54166e-15 -3.18055e-15 -9.54166e-15 0 -8.3 1.9 3.52365 15.6957 -0.628006 5.68434e-14 -4.5 0 -1.59028e-15 6.36111e-15 -0 5.68434e-14 -3.4 4.54747e-13 3.18055e-15 -9.54166e-15 -3.18055e-15 0.25 -2.2 0.4 -9.54166e-15 -3.18055e-15 -9.54166e-15 0 -8.3 1 7.97493 10.5283 -1.03245 0 -4.65 -1.13687e-13 9.82411 0.342662 -0.116574 0 -3.3 2.27374e-13 8.54986 0.25999 -0.131503 0.5 -2.15 -0.8 -9.54166e-15 -3.18055e-15 -9.54166e-15 0 -7.75 -0.2 18.1967 3.73163 -1.27159 0 -3.8 4.54747e-13 40.5933 -0.0511043 0.0635789 -5.68434e-14 -3.4 -2.27374e-13 28.4508 -0.00818606 0.0491379 0.75 -1.75 -1.85 -9.54166e-15 -3.18055e-15 -9.54166e-15 1.13687e-13 -7.15 -1 25.0458 -4.09562 0.123245 2.84217e-14 -3 0 3.97569e-15 -9.54166e-15 -7.95139e-16 0 -2.35 0 -7.95139e-16 3.18055e-15 4.77083e-15 8 0 0 -9.64399 -20.6858 2.40158 0 -45 -1 -0.357998 27.8547 1.8526 0 -41 -2 4.16818 -8.88475 19.9049 0 -7.5 12.5 1.81993e-19 -3.18065e-15 -4.77083e-15 5.68434e-14 0 4 -8.62169 6.8884 -9.16293 -8 1.42109e-14 0 -14.2208 -26.2119 0.975403 0 -45 -1 0.76804 32.1187 -3.22333 0 -41 -2 8.03349 -7.0486 14.2716 -1.42109e-14 -7.5 12.5 3.03321e-20 -1.94126e-19 -0 -2.84217e-14 0 4 1.52043 1.8343 12.8283 
